{"glyphs":{"0":{"ha":608,"x_min":0,"x_max":521,"o":"m 347 174 l 347 521 l 174 521 l 174 174 l 347 174 m 87 0 l 87 87 l 0 87 l 0 434 l 87 434 l 87 521 l 0 521 l 0 608 l 87 608 l 87 694 l 434 694 l 434 608 l 521 608 l 521 87 l 434 87 l 434 0 l 87 0 z "},"1":{"ha":260,"x_min":0,"x_max":174,"o":"m 0 0 l 0 434 l 87 434 l 87 521 l 0 521 l 0 608 l 87 608 l 87 694 l 174 694 l 174 0 l 0 0 z "},"2":{"ha":608,"x_min":0,"x_max":521,"o":"m 0 0 l 0 347 l 87 347 l 87 434 l 347 434 l 347 521 l 0 521 l 0 608 l 87 608 l 87 694 l 434 694 l 434 608 l 521 608 l 521 347 l 434 347 l 434 260 l 174 260 l 174 174 l 434 174 l 434 87 l 521 87 l 521 0 l 0 0 z "},"3":{"ha":608,"x_min":0,"x_max":521,"o":"m 0 0 l 0 174 l 347 174 l 347 260 l 174 260 l 174 347 l 87 347 l 87 434 l 347 434 l 347 521 l 0 521 l 0 694 l 434 694 l 434 608 l 521 608 l 521 87 l 434 87 l 434 0 l 0 0 z "},"4":{"ha":608,"x_min":0,"x_max":521,"o":"m 347 0 l 347 347 l 260 347 l 260 260 l 0 260 l 0 434 l 87 434 l 87 521 l 0 521 l 0 694 l 174 694 l 174 434 l 347 434 l 347 694 l 521 694 l 521 0 l 347 0 z "},"5":{"ha":608,"x_min":0,"x_max":521,"o":"m 87 0 l 87 87 l 0 87 l 0 174 l 347 174 l 347 260 l 0 260 l 0 434 l 87 434 l 87 521 l 0 521 l 0 694 l 521 694 l 521 608 l 434 608 l 434 521 l 174 521 l 174 434 l 434 434 l 434 347 l 521 347 l 521 87 l 434 87 l 434 0 l 87 0 z "},"6":{"ha":608,"x_min":0,"x_max":521,"o":"m 347 174 l 347 260 l 174 260 l 174 174 l 347 174 m 87 0 l 87 87 l 0 87 l 0 434 l 87 434 l 87 521 l 0 521 l 0 608 l 87 608 l 87 694 l 521 694 l 521 608 l 434 608 l 434 521 l 174 521 l 174 434 l 434 434 l 434 347 l 521 347 l 521 87 l 434 87 l 434 0 l 87 0 z "},"7":{"ha":608,"x_min":0,"x_max":521,"o":"m 0 0 l 0 260 l 87 260 l 87 347 l 174 347 l 174 434 l 260 434 l 260 521 l 87 521 l 87 608 l 0 608 l 0 694 l 521 694 l 521 434 l 434 434 l 434 347 l 347 347 l 347 260 l 260 260 l 260 174 l 174 174 l 174 0 l 0 0 z "},"8":{"ha":608,"x_min":0,"x_max":521,"o":"m 347 174 l 347 260 l 174 260 l 174 174 l 347 174 m 347 434 l 347 521 l 174 521 l 174 434 l 347 434 m 87 0 l 87 87 l 0 87 l 0 434 l 87 434 l 87 521 l 0 521 l 0 608 l 87 608 l 87 694 l 434 694 l 434 608 l 521 608 l 521 87 l 434 87 l 434 0 l 87 0 z "},"9":{"ha":608,"x_min":0,"x_max":521,"o":"m 347 434 l 347 521 l 174 521 l 174 434 l 347 434 m 87 0 l 87 87 l 0 87 l 0 174 l 347 174 l 347 260 l 87 260 l 87 347 l 0 347 l 0 608 l 87 608 l 87 694 l 434 694 l 434 608 l 521 608 l 521 87 l 434 87 l 434 0 l 87 0 z "}," ":{"ha":260,"x_min":0,"x_max":0,"o":""},"!":{"ha":260,"x_min":0,"x_max":174,"o":"m 0 0 l 0 174 l 174 174 l 174 0 l 0 0 m 0 260 l 0 694 l 174 694 l 174 260 l 0 260 z "},"\"":{"ha":521,"x_min":0,"x_max":434,"o":"m 87 434 l 87 521 l 0 521 l 0 694 l 174 694 l 174 434 l 87 434 m 260 434 l 260 694 l 434 694 l 434 521 l 347 521 l 347 434 l 260 434 z "},"#":{"ha":781,"x_min":0,"x_max":694,"o":"m 434 260 l 434 434 l 260 434 l 260 260 l 434 260 m 87 0 l 87 87 l 0 87 l 0 260 l 87 260 l 87 434 l 0 434 l 0 608 l 87 608 l 87 694 l 260 694 l 260 608 l 434 608 l 434 694 l 608 694 l 608 608 l 694 608 l 694 434 l 608 434 l 608 260 l 694 260 l 694 87 l 608 87 l 608 0 l 434 0 l 434 87 l 260 87 l 260 0 l 87 0 z "},"$":{"ha":1042,"x_min":-260,"x_max":1302,"o":"m 0 -521 l 0 -434 l 87 -434 l 87 -521 l 0 -521 m 174 -87 l 174 0 l 260 0 l 260 -87 l 174 -87 m 260 0 l 260 87 l 347 87 l 347 0 l 260 0 m 608 521 l 608 608 l 694 608 l 694 694 l 608 694 l 608 608 l 521 608 l 521 521 l 608 521 m 868 521 l 868 694 l 955 694 l 955 521 l 868 521 m 260 -521 l 260 -434 l 87 -434 l 87 -347 l -87 -347 l -87 -260 l -174 -260 l -174 -174 l -260 -174 l -260 0 l -174 0 l -174 -87 l -87 -87 l -87 -174 l 87 -174 l 87 -87 l 174 -87 l 174 -174 l 260 -174 l 260 -87 l 347 -87 l 347 0 l 434 0 l 434 -87 l 521 -87 l 521 0 l 608 0 l 608 87 l 521 87 l 521 0 l 434 0 l 434 87 l 347 87 l 347 260 l 260 260 l 260 347 l 174 347 l 174 608 l 260 608 l 260 781 l 347 781 l 347 868 l 521 868 l 521 955 l 868 955 l 868 1042 l 955 1042 l 955 955 l 1042 955 l 1042 1042 l 1215 1042 l 1215 868 l 1302 868 l 1302 781 l 1042 781 l 1042 694 l 955 694 l 955 781 l 868 781 l 868 694 l 781 694 l 781 521 l 694 521 l 694 434 l 781 434 l 781 521 l 868 521 l 868 174 l 955 174 l 955 0 l 868 0 l 868 -174 l 781 -174 l 781 -260 l 694 -260 l 694 -347 l 521 -347 l 521 -434 l 347 -434 l 347 -521 l 260 -521 z "},"%":{"ha":781,"x_min":0,"x_max":694,"o":"m 521 0 l 521 174 l 694 174 l 694 0 l 521 0 m 0 521 l 0 694 l 174 694 l 174 521 l 0 521 m 0 0 l 0 174 l 87 174 l 87 260 l 174 260 l 174 347 l 260 347 l 260 434 l 347 434 l 347 521 l 434 521 l 434 608 l 521 608 l 521 694 l 694 694 l 694 521 l 608 521 l 608 434 l 521 434 l 521 347 l 434 347 l 434 260 l 347 260 l 347 174 l 260 174 l 260 87 l 174 87 l 174 0 l 0 0 z "},"&":{"ha":1389,"x_min":0,"x_max":1389,"o":"m 694 -87 l 694 87 l 434 87 l 434 174 l 347 174 l 347 87 l 434 87 l 434 0 l 608 0 l 608 -87 l 694 -87 m 434 -347 l 434 -260 l 347 -260 l 347 -174 l 174 -174 l 174 -87 l 87 -87 l 87 0 l 0 0 l 0 260 l 87 260 l 87 347 l 0 347 l 0 521 l 87 521 l 87 608 l 174 608 l 174 694 l 260 694 l 260 781 l 347 781 l 347 868 l 955 868 l 955 781 l 1128 781 l 1128 868 l 1302 868 l 1302 521 l 1128 521 l 1128 434 l 1042 434 l 1042 608 l 955 608 l 955 694 l 608 694 l 608 608 l 521 608 l 521 521 l 434 521 l 434 434 l 521 434 l 521 347 l 781 347 l 781 434 l 868 434 l 868 347 l 1302 347 l 1302 260 l 1128 260 l 1128 174 l 1042 174 l 1042 87 l 955 87 l 955 0 l 1215 0 l 1215 87 l 1302 87 l 1302 174 l 1389 174 l 1389 -87 l 1302 -87 l 1302 -174 l 1215 -174 l 1215 -260 l 1042 -260 l 1042 -347 l 434 -347 z "},"'":{"ha":260,"x_min":0,"x_max":174,"o":"m 0 434 l 0 694 l 174 694 l 174 521 l 87 521 l 87 434 l 0 434 z "},"(":{"ha":434,"x_min":0,"x_max":347,"o":"m 87 -174 l 87 -87 l 0 -87 l 0 434 l 87 434 l 87 521 l 0 521 l 0 781 l 87 781 l 87 868 l 347 868 l 347 694 l 174 694 l 174 0 l 347 0 l 347 -174 l 87 -174 z "},")":{"ha":434,"x_min":0,"x_max":347,"o":"m 0 -174 l 0 0 l 174 0 l 174 434 l 260 434 l 260 521 l 174 521 l 174 694 l 0 694 l 0 868 l 260 868 l 260 781 l 347 781 l 347 -87 l 260 -87 l 260 -174 l 0 -174 z "},"*":{"ha":434,"x_min":0,"x_max":347,"o":"m 87 347 l 87 434 l 0 434 l 0 608 l 87 608 l 87 694 l 260 694 l 260 608 l 347 608 l 347 434 l 260 434 l 260 347 l 87 347 z "},"+":{"ha":434,"x_min":0,"x_max":347,"o":"m 87 174 l 87 260 l 0 260 l 0 434 l 87 434 l 87 521 l 260 521 l 260 434 l 347 434 l 347 260 l 260 260 l 260 174 l 87 174 z "},",":{"ha":260,"x_min":0,"x_max":174,"o":"m 0 -87 l 0 0 l 87 0 l 87 -87 l 0 -87 m 87 0 l 87 87 l 0 87 l 0 174 l 174 174 l 174 0 l 87 0 z "},"-":{"ha":434,"x_min":0,"x_max":347,"o":"m 0 260 l 0 434 l 347 434 l 347 260 l 0 260 z "},".":{"ha":260,"x_min":0,"x_max":174,"o":"m 0 0 l 0 174 l 174 174 l 174 0 l 0 0 z "},"/":{"ha":608,"x_min":0,"x_max":521,"o":"m 0 0 l 0 260 l 87 260 l 87 347 l 174 347 l 174 434 l 260 434 l 260 521 l 347 521 l 347 694 l 521 694 l 521 434 l 434 434 l 434 347 l 347 347 l 347 260 l 260 260 l 260 174 l 174 174 l 174 0 l 0 0 z "},":":{"ha":260,"x_min":0,"x_max":174,"o":"m 0 87 l 0 260 l 174 260 l 174 87 l 0 87 m 0 434 l 0 608 l 174 608 l 174 434 l 0 434 z "},";":{"ha":260,"x_min":0,"x_max":174,"o":"m 0 0 l 0 87 l 87 87 l 87 0 l 0 0 m 87 87 l 87 174 l 0 174 l 0 260 l 174 260 l 174 87 l 87 87 m 0 434 l 0 608 l 174 608 l 174 434 l 0 434 z "},"<":{"ha":521,"x_min":0,"x_max":434,"o":"m 174 87 l 174 174 l 87 174 l 87 260 l 0 260 l 0 434 l 87 434 l 87 521 l 174 521 l 174 608 l 434 608 l 434 521 l 347 521 l 347 434 l 260 434 l 260 260 l 347 260 l 347 174 l 434 174 l 434 87 l 174 87 z "},"=":{"ha":608,"x_min":0,"x_max":521,"o":"m 0 87 l 0 260 l 521 260 l 521 87 l 0 87 m 0 434 l 0 608 l 521 608 l 521 434 l 0 434 z "},">":{"ha":521,"x_min":0,"x_max":434,"o":"m 0 87 l 0 174 l 87 174 l 87 260 l 174 260 l 174 434 l 87 434 l 87 521 l 0 521 l 0 608 l 260 608 l 260 521 l 347 521 l 347 434 l 434 434 l 434 260 l 347 260 l 347 174 l 260 174 l 260 87 l 0 87 z "},"?":{"ha":608,"x_min":0,"x_max":521,"o":"m 87 0 l 87 174 l 260 174 l 260 0 l 87 0 m 87 260 l 87 347 l 174 347 l 174 434 l 347 434 l 347 521 l 0 521 l 0 608 l 87 608 l 87 694 l 434 694 l 434 608 l 521 608 l 521 347 l 434 347 l 434 260 l 87 260 z "},"@":{"ha":781,"x_min":0,"x_max":694,"o":"m 87 0 l 87 87 l 0 87 l 0 434 l 87 434 l 87 521 l 0 521 l 0 608 l 87 608 l 87 694 l 608 694 l 608 608 l 694 608 l 694 260 l 260 260 l 260 434 l 521 434 l 521 521 l 174 521 l 174 174 l 694 174 l 694 87 l 608 87 l 608 0 l 87 0 z "},"A":{"ha":1128,"x_min":-260,"x_max":1736,"o":"m 1649 -521 l 1649 -434 l 1736 -434 l 1736 -521 l 1649 -521 m -260 -260 l -260 -174 l -174 -174 l -174 -260 l -260 -260 m 781 260 l 781 347 l 694 347 l 694 521 l 608 521 l 608 434 l 521 434 l 521 347 l 434 347 l 434 260 l 781 260 m 1389 -434 l 1389 -347 l 1215 -347 l 1215 -260 l 1042 -260 l 1042 -174 l 955 -174 l 955 -87 l 868 -87 l 868 0 l 608 0 l 608 87 l 434 87 l 434 174 l 260 174 l 260 87 l 174 87 l 174 0 l 87 0 l 87 -87 l 0 -87 l 0 -174 l -174 -174 l -174 0 l -87 0 l -87 87 l 0 87 l 0 174 l 87 174 l 87 260 l 174 260 l 174 434 l 260 434 l 260 608 l 347 608 l 347 694 l 434 694 l 434 781 l 260 781 l 260 868 l 781 868 l 781 694 l 868 694 l 868 608 l 955 608 l 955 434 l 1042 434 l 1042 174 l 1128 174 l 1128 87 l 1215 87 l 1215 -87 l 1302 -87 l 1302 -174 l 1476 -174 l 1476 -260 l 1563 -260 l 1563 -347 l 1649 -347 l 1649 -434 l 1389 -434 z "},"B":{"ha":1128,"x_min":-347,"x_max":1042,"o":"m 174 -174 l 174 -87 l 347 -87 l 347 87 l 521 87 l 521 174 l 434 174 l 434 260 l 260 260 l 260 87 l 174 87 l 174 -87 l 87 -87 l 87 -174 l 174 -174 m 608 347 l 608 434 l 694 434 l 694 521 l 608 521 l 608 608 l 434 608 l 434 434 l 347 434 l 347 347 l 608 347 m -87 -434 l -87 -347 l 0 -347 l 0 -260 l -174 -260 l -174 -174 l -260 -174 l -260 -87 l -347 -87 l -347 0 l -174 0 l -174 87 l 0 87 l 0 174 l 87 174 l 87 347 l 174 347 l 174 608 l 87 608 l 87 694 l 0 694 l 0 781 l -174 781 l -174 868 l 694 868 l 694 781 l 868 781 l 868 694 l 955 694 l 955 521 l 1042 521 l 1042 347 l 781 347 l 781 260 l 955 260 l 955 87 l 868 87 l 868 0 l 781 0 l 781 -87 l 694 -87 l 694 -174 l 521 -174 l 521 -260 l 347 -260 l 347 -347 l 87 -347 l 87 -434 l -87 -434 z "},"C":{"ha":1389,"x_min":0,"x_max":1389,"o":"m 434 -347 l 434 -260 l 347 -260 l 347 -174 l 174 -174 l 174 -87 l 87 -87 l 87 0 l 0 0 l 0 434 l 87 434 l 87 608 l 174 608 l 174 694 l 260 694 l 260 781 l 347 781 l 347 868 l 955 868 l 955 781 l 1128 781 l 1128 868 l 1302 868 l 1302 521 l 1215 521 l 1215 347 l 1128 347 l 1128 434 l 1042 434 l 1042 608 l 955 608 l 955 694 l 608 694 l 608 608 l 521 608 l 521 521 l 434 521 l 434 347 l 347 347 l 347 87 l 434 87 l 434 0 l 608 0 l 608 -87 l 868 -87 l 868 0 l 1215 0 l 1215 87 l 1302 87 l 1302 174 l 1389 174 l 1389 -87 l 1302 -87 l 1302 -174 l 1215 -174 l 1215 -260 l 1042 -260 l 1042 -347 l 434 -347 z "},"D":{"ha":1128,"x_min":-347,"x_max":1042,"o":"m 347 0 l 347 87 l 521 87 l 521 174 l 608 174 l 608 260 l 694 260 l 694 521 l 608 521 l 608 608 l 434 608 l 434 434 l 347 434 l 347 260 l 260 260 l 260 87 l 174 87 l 174 0 l 347 0 m -174 -260 l -174 -174 l -260 -174 l -260 -87 l -347 -87 l -347 0 l -174 0 l -174 87 l 0 87 l 0 174 l 87 174 l 87 347 l 174 347 l 174 608 l 87 608 l 87 694 l 0 694 l 0 781 l -87 781 l -87 868 l 694 868 l 694 781 l 868 781 l 868 694 l 955 694 l 955 521 l 1042 521 l 1042 260 l 955 260 l 955 87 l 868 87 l 868 0 l 781 0 l 781 -87 l 608 -87 l 608 -174 l 347 -174 l 347 -260 l -174 -260 z "},"E":{"ha":1389,"x_min":0,"x_max":1736,"o":"m 1128 -347 l 1128 -260 l 955 -260 l 955 -174 l 521 -174 l 521 -87 l 87 -87 l 87 -174 l 0 -174 l 0 260 l 87 260 l 87 608 l 174 608 l 174 781 l 0 781 l 0 868 l 1302 868 l 1302 608 l 1215 608 l 1215 694 l 521 694 l 521 608 l 434 608 l 434 521 l 1042 521 l 1042 434 l 868 434 l 868 347 l 608 347 l 608 260 l 434 260 l 434 174 l 608 174 l 608 87 l 1042 87 l 1042 0 l 1215 0 l 1215 -87 l 1649 -87 l 1649 0 l 1736 0 l 1736 -174 l 1649 -174 l 1649 -260 l 1476 -260 l 1476 -347 l 1128 -347 z "},"F":{"ha":1128,"x_min":0,"x_max":1302,"o":"m 0 -434 l 0 260 l 87 260 l 87 608 l 174 608 l 174 781 l 0 781 l 0 868 l 1302 868 l 1302 608 l 1215 608 l 1215 694 l 521 694 l 521 608 l 434 608 l 434 521 l 1042 521 l 1042 434 l 868 434 l 868 347 l 608 347 l 608 260 l 434 260 l 434 174 l 347 174 l 347 -87 l 260 -87 l 260 -174 l 174 -174 l 174 -347 l 87 -347 l 87 -434 l 0 -434 z "},"G":{"ha":1389,"x_min":0,"x_max":1476,"o":"m 434 -347 l 434 -260 l 347 -260 l 347 -174 l 174 -174 l 174 -87 l 87 -87 l 87 0 l 0 0 l 0 434 l 87 434 l 87 608 l 174 608 l 174 694 l 260 694 l 260 781 l 347 781 l 347 868 l 955 868 l 955 781 l 1128 781 l 1128 868 l 1302 868 l 1302 608 l 1215 608 l 1215 521 l 1128 521 l 1128 434 l 1042 434 l 1042 521 l 955 521 l 955 608 l 608 608 l 608 521 l 521 521 l 521 434 l 434 434 l 434 260 l 347 260 l 347 87 l 434 87 l 434 0 l 608 0 l 608 -87 l 868 -87 l 868 0 l 1215 0 l 1215 87 l 1042 87 l 1042 174 l 781 174 l 781 260 l 608 260 l 608 347 l 1476 347 l 1476 174 l 1389 174 l 1389 -87 l 1302 -87 l 1302 -174 l 1215 -174 l 1215 -260 l 1042 -260 l 1042 -347 l 434 -347 z "},"H":{"ha":1215,"x_min":-347,"x_max":1128,"o":"m 608 -608 l 608 -174 l 694 -174 l 694 87 l 521 87 l 521 174 l 260 174 l 260 0 l 174 0 l 174 -260 l 87 -260 l 87 -347 l 0 -347 l 0 174 l 87 174 l 87 260 l -260 260 l -260 347 l -347 347 l -347 434 l 87 434 l 87 694 l 0 694 l 0 781 l -87 781 l -87 868 l 347 868 l 347 434 l 868 434 l 868 521 l 781 521 l 781 781 l 694 781 l 694 868 l 1128 868 l 1128 174 l 1042 174 l 1042 -87 l 955 -87 l 955 -174 l 868 -174 l 868 -347 l 781 -347 l 781 -521 l 694 -521 l 694 -608 l 608 -608 z "},"I":{"ha":434,"x_min":-174,"x_max":434,"o":"m -174 -694 l -174 -434 l -87 -434 l -87 -87 l 0 -87 l 0 260 l 87 260 l 87 434 l 174 434 l 174 521 l 87 521 l 87 608 l 0 608 l 0 781 l -87 781 l -87 868 l 434 868 l 434 781 l 347 781 l 347 0 l 260 0 l 260 -87 l 174 -87 l 174 -347 l 87 -347 l 87 -521 l 0 -521 l 0 -608 l -87 -608 l -87 -694 l -174 -694 z "},"J":{"ha":1128,"x_min":-87,"x_max":1128,"o":"m 521 87 l 521 174 l 608 174 l 608 87 l 521 87 m 174 -434 l 174 -347 l 87 -347 l 87 -260 l 0 -260 l 0 -87 l -87 -87 l -87 174 l 0 174 l 0 260 l 87 260 l 87 347 l 434 347 l 434 260 l 521 260 l 521 174 l 260 174 l 260 87 l 174 87 l 174 -87 l 260 -87 l 260 -174 l 608 -174 l 608 -87 l 694 -87 l 694 260 l 781 260 l 781 434 l 868 434 l 868 521 l 781 521 l 781 608 l 694 608 l 694 694 l 521 694 l 521 781 l 260 781 l 260 868 l 1128 868 l 1128 781 l 1042 781 l 1042 0 l 955 0 l 955 -87 l 868 -87 l 868 -260 l 781 -260 l 781 -347 l 694 -347 l 694 -434 l 174 -434 z "},"K":{"ha":1215,"x_min":-347,"x_max":1736,"o":"m 0 -347 l 0 174 l 87 174 l 87 260 l -260 260 l -260 347 l -347 347 l -347 434 l 87 434 l 87 694 l 0 694 l 0 781 l -87 781 l -87 868 l 347 868 l 347 434 l 434 434 l 434 347 l 521 347 l 521 434 l 955 434 l 955 521 l 868 521 l 868 781 l 781 781 l 781 868 l 1128 868 l 1128 347 l 1042 347 l 1042 260 l 868 260 l 868 174 l 955 174 l 955 87 l 1042 87 l 1042 0 l 1215 0 l 1215 -87 l 1649 -87 l 1649 0 l 1736 0 l 1736 -174 l 1649 -174 l 1649 -260 l 1476 -260 l 1476 -347 l 1128 -347 l 1128 -260 l 955 -260 l 955 -174 l 781 -174 l 781 -87 l 694 -87 l 694 0 l 521 0 l 521 87 l 434 87 l 434 174 l 260 174 l 260 0 l 174 0 l 174 -260 l 87 -260 l 87 -347 l 0 -347 z "},"L":{"ha":955,"x_min":0,"x_max":1476,"o":"m 868 -347 l 868 -260 l 694 -260 l 694 -174 l 521 -174 l 521 -87 l 87 -87 l 87 -174 l 0 -174 l 0 260 l 87 260 l 87 608 l 174 608 l 174 781 l 0 781 l 0 868 l 868 868 l 868 608 l 781 608 l 781 694 l 521 694 l 521 608 l 434 608 l 434 174 l 608 174 l 608 87 l 868 87 l 868 0 l 955 0 l 955 -87 l 1389 -87 l 1389 0 l 1476 0 l 1476 -174 l 1389 -174 l 1389 -260 l 1215 -260 l 1215 -347 l 868 -347 z "},"M":{"ha":1476,"x_min":-87,"x_max":1389,"o":"m 955 -608 l 955 -260 l 1042 -260 l 1042 260 l 955 260 l 955 174 l 868 174 l 868 87 l 781 87 l 781 0 l 694 0 l 694 -87 l 608 -87 l 608 87 l 521 87 l 521 174 l 434 174 l 434 260 l 347 260 l 347 87 l 260 87 l 260 0 l 174 0 l 174 -260 l 87 -260 l 87 -347 l 0 -347 l 0 174 l 87 174 l 87 694 l 0 694 l 0 781 l -87 781 l -87 868 l 434 868 l 434 781 l 521 781 l 521 694 l 608 694 l 608 521 l 781 521 l 781 608 l 868 608 l 868 694 l 955 694 l 955 781 l 868 781 l 868 868 l 1389 868 l 1389 347 l 1302 347 l 1302 -87 l 1215 -87 l 1215 -347 l 1128 -347 l 1128 -521 l 1042 -521 l 1042 -608 l 955 -608 z "},"N":{"ha":1215,"x_min":-87,"x_max":1128,"o":"m 694 -608 l 694 -347 l 608 -347 l 608 -260 l 521 -260 l 521 -87 l 434 -87 l 434 174 l 347 174 l 347 0 l 174 0 l 174 -260 l 87 -260 l 87 -347 l 0 -347 l 0 174 l 87 174 l 87 694 l 0 694 l 0 781 l -87 781 l -87 868 l 434 868 l 434 781 l 521 781 l 521 694 l 608 694 l 608 521 l 694 521 l 694 347 l 781 347 l 781 174 l 868 174 l 868 434 l 955 434 l 955 521 l 868 521 l 868 781 l 781 781 l 781 868 l 1128 868 l 1128 347 l 1042 347 l 1042 -87 l 955 -87 l 955 -347 l 868 -347 l 868 -521 l 781 -521 l 781 -608 l 694 -608 z "},"O":{"ha":1389,"x_min":0,"x_max":1302,"o":"m 694 -87 l 694 0 l 781 0 l 781 87 l 868 87 l 868 174 l 955 174 l 955 521 l 868 521 l 868 608 l 781 608 l 781 694 l 608 694 l 608 608 l 434 608 l 434 434 l 347 434 l 347 174 l 434 174 l 434 0 l 521 0 l 521 -87 l 694 -87 m 260 -260 l 260 -174 l 174 -174 l 174 -87 l 87 -87 l 87 0 l 0 0 l 0 521 l 87 521 l 87 694 l 260 694 l 260 781 l 347 781 l 347 868 l 955 868 l 955 781 l 1128 781 l 1128 694 l 1215 694 l 1215 608 l 1302 608 l 1302 87 l 1215 87 l 1215 -87 l 1042 -87 l 1042 -174 l 955 -174 l 955 -260 l 260 -260 z "},"P":{"ha":1389,"x_min":0,"x_max":1302,"o":"m 0 -434 l 0 260 l 87 260 l 87 608 l 174 608 l 174 694 l 87 694 l 87 781 l 0 781 l 0 868 l 1042 868 l 1042 781 l 1215 781 l 1215 694 l 1302 694 l 1302 434 l 1215 434 l 1215 347 l 1042 347 l 1042 260 l 868 260 l 868 174 l 434 174 l 434 260 l 521 260 l 521 347 l 694 347 l 694 434 l 868 434 l 868 521 l 781 521 l 781 608 l 694 608 l 694 694 l 521 694 l 521 608 l 434 608 l 434 260 l 347 260 l 347 -87 l 260 -87 l 260 -174 l 174 -174 l 174 -347 l 87 -347 l 87 -434 l 0 -434 z "},"Q":{"ha":1389,"x_min":0,"x_max":1823,"o":"m 694 -87 l 694 0 l 608 0 l 608 87 l 521 87 l 521 174 l 434 174 l 434 260 l 955 260 l 955 521 l 868 521 l 868 608 l 781 608 l 781 694 l 608 694 l 608 608 l 434 608 l 434 434 l 347 434 l 347 174 l 434 174 l 434 0 l 521 0 l 521 -87 l 694 -87 m 1215 -347 l 1215 -260 l 1042 -260 l 1042 -174 l 955 -174 l 955 -260 l 260 -260 l 260 -174 l 174 -174 l 174 -87 l 87 -87 l 87 0 l 0 0 l 0 521 l 87 521 l 87 694 l 260 694 l 260 781 l 347 781 l 347 868 l 955 868 l 955 781 l 1128 781 l 1128 694 l 1215 694 l 1215 608 l 1302 608 l 1302 87 l 1215 87 l 1215 0 l 1302 0 l 1302 -87 l 1736 -87 l 1736 0 l 1823 0 l 1823 -174 l 1736 -174 l 1736 -260 l 1563 -260 l 1563 -347 l 1215 -347 z "},"R":{"ha":1389,"x_min":0,"x_max":1736,"o":"m 521 347 l 521 434 l 868 434 l 868 521 l 781 521 l 781 608 l 608 608 l 608 694 l 521 694 l 521 608 l 434 608 l 434 347 l 521 347 m 1128 -347 l 1128 -260 l 955 -260 l 955 -174 l 781 -174 l 781 -87 l 694 -87 l 694 0 l 521 0 l 521 87 l 434 87 l 434 174 l 347 174 l 347 260 l 260 260 l 260 87 l 174 87 l 174 -87 l 87 -87 l 87 -174 l 0 -174 l 0 260 l 87 260 l 87 608 l 174 608 l 174 781 l 0 781 l 0 868 l 1042 868 l 1042 781 l 1215 781 l 1215 694 l 1302 694 l 1302 434 l 1215 434 l 1215 347 l 1042 347 l 1042 260 l 868 260 l 868 174 l 955 174 l 955 87 l 1042 87 l 1042 0 l 1215 0 l 1215 -87 l 1649 -87 l 1649 0 l 1736 0 l 1736 -174 l 1649 -174 l 1649 -260 l 1476 -260 l 1476 -347 l 1128 -347 z "},"S":{"ha":955,"x_min":-347,"x_max":1302,"o":"m 1215 694 l 1215 781 l 1302 781 l 1302 694 l 1215 694 m 87 -434 l 87 -347 l -174 -347 l -174 -260 l -260 -260 l -260 -174 l -347 -174 l -347 0 l -260 0 l -260 -87 l -174 -87 l -174 -174 l 260 -174 l 260 -87 l 434 -87 l 434 0 l 521 0 l 521 87 l 434 87 l 434 174 l 260 174 l 260 260 l 174 260 l 174 347 l 87 347 l 87 608 l 174 608 l 174 781 l 260 781 l 260 868 l 434 868 l 434 955 l 1128 955 l 1128 868 l 1215 868 l 1215 781 l 694 781 l 694 694 l 521 694 l 521 608 l 434 608 l 434 521 l 521 521 l 521 434 l 694 434 l 694 347 l 781 347 l 781 174 l 868 174 l 868 0 l 781 0 l 781 -174 l 694 -174 l 694 -260 l 608 -260 l 608 -347 l 434 -347 l 434 -434 l 87 -434 z "},"T":{"ha":1128,"x_min":0,"x_max":1302,"o":"m 347 -434 l 347 -260 l 434 -260 l 434 347 l 521 347 l 521 694 l 174 694 l 174 781 l 0 781 l 0 868 l 1302 868 l 1302 608 l 1215 608 l 1215 694 l 868 694 l 868 260 l 781 260 l 781 0 l 694 0 l 694 -174 l 608 -174 l 608 -347 l 434 -347 l 434 -434 l 347 -434 z "},"U":{"ha":1215,"x_min":0,"x_max":1128,"o":"m 260 -260 l 260 -174 l 174 -174 l 174 -87 l 87 -87 l 87 434 l 174 434 l 174 694 l 87 694 l 87 781 l 0 781 l 0 868 l 434 868 l 434 434 l 347 434 l 347 174 l 434 174 l 434 87 l 694 87 l 694 174 l 781 174 l 781 347 l 868 347 l 868 434 l 955 434 l 955 521 l 868 521 l 868 781 l 781 781 l 781 868 l 1128 868 l 1128 87 l 1042 87 l 1042 0 l 955 0 l 955 -87 l 868 -87 l 868 -174 l 608 -174 l 608 -260 l 260 -260 z "},"V":{"ha":1128,"x_min":0,"x_max":1649,"o":"m 434 -260 l 434 -174 l 347 -174 l 347 -87 l 260 -87 l 260 0 l 174 0 l 174 174 l 87 174 l 87 347 l 0 347 l 0 868 l 521 868 l 521 781 l 347 781 l 347 694 l 260 694 l 260 347 l 347 347 l 347 260 l 434 260 l 434 174 l 521 174 l 521 87 l 608 87 l 608 260 l 694 260 l 694 521 l 781 521 l 781 694 l 868 694 l 868 781 l 955 781 l 955 868 l 1128 868 l 1128 955 l 1302 955 l 1302 1042 l 1563 1042 l 1563 955 l 1476 955 l 1476 868 l 1389 868 l 1389 781 l 1215 781 l 1215 694 l 1128 694 l 1128 521 l 1042 521 l 1042 434 l 955 434 l 955 174 l 868 174 l 868 0 l 781 0 l 781 -87 l 694 -87 l 694 -260 l 434 -260 m 1563 1042 l 1563 1128 l 1649 1128 l 1649 1042 l 1563 1042 z "},"W":{"ha":1736,"x_min":0,"x_max":1649,"o":"m 434 -260 l 434 -174 l 347 -174 l 347 -87 l 260 -87 l 260 0 l 174 0 l 174 174 l 87 174 l 87 347 l 0 347 l 0 868 l 521 868 l 521 781 l 347 781 l 347 694 l 260 694 l 260 347 l 347 347 l 347 260 l 434 260 l 434 174 l 521 174 l 521 87 l 608 87 l 608 260 l 694 260 l 694 694 l 608 694 l 608 868 l 1128 868 l 1128 781 l 955 781 l 955 694 l 868 694 l 868 608 l 955 608 l 955 260 l 1042 260 l 1042 174 l 1128 174 l 1128 87 l 1215 87 l 1215 260 l 1302 260 l 1302 521 l 1389 521 l 1389 781 l 1215 781 l 1215 868 l 1649 868 l 1649 260 l 1563 260 l 1563 87 l 1476 87 l 1476 0 l 1389 0 l 1389 -87 l 1302 -87 l 1302 -260 l 1042 -260 l 1042 -174 l 955 -174 l 955 -87 l 868 -87 l 868 0 l 781 0 l 781 -87 l 694 -87 l 694 -260 l 434 -260 z "},"X":{"ha":1215,"x_min":-87,"x_max":1736,"o":"m 1128 -347 l 1128 -260 l 955 -260 l 955 -174 l 781 -174 l 781 -87 l 694 -87 l 694 0 l 608 0 l 608 87 l 521 87 l 521 0 l 434 0 l 434 -87 l 347 -87 l 347 -174 l 174 -174 l 174 -260 l -87 -260 l -87 -174 l 0 -174 l 0 0 l 87 0 l 87 87 l 174 87 l 174 174 l 347 174 l 347 260 l 260 260 l 260 347 l 174 347 l 174 521 l 87 521 l 87 608 l 0 608 l 0 868 l 347 868 l 347 781 l 260 781 l 260 694 l 347 694 l 347 608 l 434 608 l 434 521 l 521 521 l 521 434 l 694 434 l 694 608 l 781 608 l 781 694 l 868 694 l 868 781 l 781 781 l 781 868 l 1128 868 l 1128 694 l 1042 694 l 1042 434 l 955 434 l 955 347 l 868 347 l 868 174 l 955 174 l 955 87 l 1042 87 l 1042 0 l 1215 0 l 1215 -87 l 1649 -87 l 1649 0 l 1736 0 l 1736 -174 l 1649 -174 l 1649 -260 l 1476 -260 l 1476 -347 l 1128 -347 z "},"Y":{"ha":1215,"x_min":-608,"x_max":1128,"o":"m -347 -347 l -347 -260 l -521 -260 l -521 -174 l -608 -174 l -608 0 l -521 0 l -521 -87 l -87 -87 l -87 0 l 87 0 l 87 87 l 174 87 l 174 174 l 260 174 l 260 347 l 174 347 l 174 434 l 87 434 l 87 694 l 0 694 l 0 868 l 347 868 l 347 781 l 260 781 l 260 694 l 347 694 l 347 608 l 434 608 l 434 434 l 608 434 l 608 521 l 694 521 l 694 608 l 781 608 l 781 694 l 868 694 l 868 781 l 781 781 l 781 868 l 1128 868 l 1128 608 l 1042 608 l 1042 521 l 955 521 l 955 347 l 868 347 l 868 260 l 781 260 l 781 174 l 694 174 l 694 87 l 521 87 l 521 0 l 434 0 l 434 -87 l 347 -87 l 347 -174 l 174 -174 l 174 -260 l 0 -260 l 0 -347 l -347 -347 z "},"Z":{"ha":1389,"x_min":0,"x_max":1736,"o":"m 1128 -347 l 1128 -260 l 955 -260 l 955 -174 l 521 -174 l 521 -87 l 87 -87 l 87 -174 l 0 -174 l 0 260 l 174 260 l 174 347 l 347 347 l 347 434 l 521 434 l 521 521 l 608 521 l 608 608 l 781 608 l 781 694 l 174 694 l 174 781 l 0 781 l 0 868 l 1302 868 l 1302 608 l 1215 608 l 1215 521 l 1042 521 l 1042 434 l 955 434 l 955 347 l 781 347 l 781 260 l 694 260 l 694 174 l 608 174 l 608 87 l 1042 87 l 1042 0 l 1215 0 l 1215 -87 l 1649 -87 l 1649 0 l 1736 0 l 1736 -174 l 1649 -174 l 1649 -260 l 1476 -260 l 1476 -347 l 1128 -347 z "},"[":{"ha":434,"x_min":0,"x_max":347,"o":"m 0 -174 l 0 434 l 87 434 l 87 521 l 0 521 l 0 868 l 347 868 l 347 694 l 174 694 l 174 0 l 347 0 l 347 -174 l 0 -174 z "},"\\":{"ha":608,"x_min":0,"x_max":521,"o":"m 347 0 l 347 174 l 260 174 l 260 260 l 174 260 l 174 347 l 87 347 l 87 434 l 0 434 l 0 694 l 174 694 l 174 521 l 260 521 l 260 434 l 347 434 l 347 347 l 434 347 l 434 260 l 521 260 l 521 0 l 347 0 z "},"]":{"ha":434,"x_min":0,"x_max":347,"o":"m 0 -174 l 0 0 l 174 0 l 174 434 l 260 434 l 260 521 l 174 521 l 174 694 l 0 694 l 0 868 l 347 868 l 347 -174 l 0 -174 z "},"_":{"ha":608,"x_min":0,"x_max":521,"o":"m 0 0 l 0 174 l 521 174 l 521 0 l 0 0 z "},"a":{"ha":608,"x_min":0,"x_max":521,"o":"m 347 347 l 347 521 l 174 521 l 174 347 l 347 347 m 0 0 l 0 434 l 87 434 l 87 521 l 0 521 l 0 608 l 87 608 l 87 694 l 434 694 l 434 608 l 521 608 l 521 0 l 347 0 l 347 260 l 260 260 l 260 174 l 174 174 l 174 0 l 0 0 z "},"b":{"ha":608,"x_min":0,"x_max":521,"o":"m 347 174 l 347 347 l 260 347 l 260 260 l 174 260 l 174 174 l 347 174 m 347 434 l 347 521 l 174 521 l 174 434 l 347 434 m 0 0 l 0 434 l 87 434 l 87 521 l 0 521 l 0 694 l 434 694 l 434 608 l 521 608 l 521 434 l 434 434 l 434 347 l 521 347 l 521 87 l 434 87 l 434 0 l 0 0 z "},"c":{"ha":608,"x_min":0,"x_max":521,"o":"m 87 0 l 87 87 l 0 87 l 0 434 l 87 434 l 87 521 l 0 521 l 0 608 l 87 608 l 87 694 l 434 694 l 434 608 l 521 608 l 521 434 l 347 434 l 347 521 l 174 521 l 174 174 l 347 174 l 347 260 l 521 260 l 521 87 l 434 87 l 434 0 l 87 0 z "},"d":{"ha":608,"x_min":0,"x_max":521,"o":"m 347 174 l 347 521 l 174 521 l 174 174 l 347 174 m 0 0 l 0 434 l 87 434 l 87 521 l 0 521 l 0 694 l 434 694 l 434 608 l 521 608 l 521 87 l 434 87 l 434 0 l 0 0 z "},"e":{"ha":608,"x_min":0,"x_max":521,"o":"m 0 0 l 0 434 l 87 434 l 87 521 l 0 521 l 0 694 l 521 694 l 521 521 l 174 521 l 174 434 l 434 434 l 434 347 l 347 347 l 347 260 l 174 260 l 174 174 l 521 174 l 521 0 l 0 0 z "},"f":{"ha":608,"x_min":0,"x_max":521,"o":"m 0 -87 l 0 434 l 87 434 l 87 521 l 0 521 l 0 694 l 521 694 l 521 521 l 174 521 l 174 434 l 434 434 l 434 347 l 347 347 l 347 260 l 174 260 l 174 0 l 87 0 l 87 -87 l 0 -87 z "},"g":{"ha":608,"x_min":0,"x_max":521,"o":"m 347 174 l 347 260 l 260 260 l 260 347 l 174 347 l 174 174 l 347 174 m 87 0 l 87 87 l 0 87 l 0 434 l 87 434 l 87 521 l 0 521 l 0 608 l 87 608 l 87 694 l 434 694 l 434 608 l 521 608 l 521 521 l 174 521 l 174 434 l 521 434 l 521 87 l 434 87 l 434 0 l 87 0 z "},"h":{"ha":608,"x_min":0,"x_max":521,"o":"m 0 0 l 0 434 l 87 434 l 87 521 l 0 521 l 0 694 l 174 694 l 174 434 l 347 434 l 347 694 l 521 694 l 521 0 l 347 0 l 347 347 l 260 347 l 260 260 l 174 260 l 174 0 l 0 0 z "},"i":{"ha":260,"x_min":0,"x_max":174,"o":"m 0 0 l 0 434 l 87 434 l 87 521 l 0 521 l 0 694 l 174 694 l 174 0 l 0 0 z "},"j":{"ha":608,"x_min":0,"x_max":521,"o":"m 87 0 l 87 87 l 0 87 l 0 347 l 87 347 l 87 260 l 174 260 l 174 174 l 347 174 l 347 521 l 260 521 l 260 608 l 174 608 l 174 694 l 521 694 l 521 87 l 434 87 l 434 0 l 87 0 z "},"k":{"ha":608,"x_min":0,"x_max":521,"o":"m 434 -87 l 434 0 l 347 0 l 347 260 l 260 260 l 260 174 l 174 174 l 174 0 l 0 0 l 0 434 l 87 434 l 87 521 l 0 521 l 0 694 l 174 694 l 174 434 l 260 434 l 260 521 l 347 521 l 347 608 l 434 608 l 434 694 l 521 694 l 521 434 l 434 434 l 434 347 l 521 347 l 521 -87 l 434 -87 z "},"l":{"ha":608,"x_min":0,"x_max":521,"o":"m 0 0 l 0 434 l 87 434 l 87 521 l 0 521 l 0 694 l 87 694 l 87 781 l 174 781 l 174 174 l 521 174 l 521 87 l 434 87 l 434 0 l 0 0 z "},"m":{"ha":694,"x_min":0,"x_max":608,"o":"m 521 -87 l 521 0 l 434 0 l 434 260 l 347 260 l 347 174 l 260 174 l 260 260 l 174 260 l 174 0 l 0 0 l 0 434 l 87 434 l 87 521 l 0 521 l 0 694 l 87 694 l 87 608 l 174 608 l 174 521 l 260 521 l 260 434 l 347 434 l 347 521 l 434 521 l 434 608 l 521 608 l 521 694 l 608 694 l 608 -87 l 521 -87 z "},"n":{"ha":608,"x_min":0,"x_max":521,"o":"m 434 -87 l 434 0 l 347 0 l 347 174 l 260 174 l 260 260 l 174 260 l 174 0 l 0 0 l 0 434 l 87 434 l 87 521 l 0 521 l 0 694 l 87 694 l 87 608 l 174 608 l 174 521 l 260 521 l 260 434 l 347 434 l 347 608 l 434 608 l 434 694 l 521 694 l 521 -87 l 434 -87 z "},"o":{"ha":608,"x_min":0,"x_max":521,"o":"m 347 174 l 347 521 l 174 521 l 174 174 l 347 174 m 87 0 l 87 87 l 0 87 l 0 434 l 87 434 l 87 521 l 0 521 l 0 608 l 87 608 l 87 694 l 434 694 l 434 608 l 521 608 l 521 87 l 434 87 l 434 0 l 87 0 z "},"p":{"ha":608,"x_min":0,"x_max":521,"o":"m 347 347 l 347 521 l 174 521 l 174 347 l 347 347 m 0 0 l 0 434 l 87 434 l 87 521 l 0 521 l 0 694 l 434 694 l 434 608 l 521 608 l 521 260 l 434 260 l 434 174 l 260 174 l 260 260 l 174 260 l 174 0 l 0 0 z "},"q":{"ha":608,"x_min":0,"x_max":521,"o":"m 260 174 l 260 347 l 347 347 l 347 260 l 434 260 l 434 347 l 347 347 l 347 521 l 174 521 l 174 174 l 260 174 m 87 0 l 87 87 l 0 87 l 0 434 l 87 434 l 87 521 l 0 521 l 0 608 l 87 608 l 87 694 l 434 694 l 434 608 l 521 608 l 521 87 l 434 87 l 434 0 l 87 0 z "},"r":{"ha":608,"x_min":0,"x_max":521,"o":"m 347 347 l 347 521 l 174 521 l 174 347 l 347 347 m 434 -87 l 434 0 l 347 0 l 347 260 l 260 260 l 260 174 l 174 174 l 174 0 l 0 0 l 0 434 l 87 434 l 87 521 l 0 521 l 0 694 l 434 694 l 434 608 l 521 608 l 521 347 l 434 347 l 434 260 l 521 260 l 521 -87 l 434 -87 z "},"s":{"ha":608,"x_min":0,"x_max":521,"o":"m 87 0 l 87 87 l 0 87 l 0 174 l 347 174 l 347 260 l 87 260 l 87 347 l 0 347 l 0 434 l 87 434 l 87 521 l 0 521 l 0 608 l 87 608 l 87 694 l 521 694 l 521 608 l 434 608 l 434 521 l 174 521 l 174 434 l 434 434 l 434 347 l 521 347 l 521 87 l 434 87 l 434 0 l 87 0 z "},"t":{"ha":608,"x_min":0,"x_max":521,"o":"m 260 -87 l 260 0 l 174 0 l 174 434 l 260 434 l 260 521 l 0 521 l 0 694 l 521 694 l 521 521 l 347 521 l 347 -87 l 260 -87 z "},"u":{"ha":608,"x_min":0,"x_max":521,"o":"m 87 0 l 87 87 l 0 87 l 0 434 l 87 434 l 87 521 l 0 521 l 0 694 l 174 694 l 174 174 l 347 174 l 347 608 l 434 608 l 434 694 l 521 694 l 521 87 l 434 87 l 434 0 l 87 0 z "},"v":{"ha":608,"x_min":0,"x_max":521,"o":"m 174 0 l 174 87 l 87 87 l 87 260 l 0 260 l 0 434 l 87 434 l 87 521 l 0 521 l 0 694 l 174 694 l 174 347 l 260 347 l 260 260 l 347 260 l 347 608 l 434 608 l 434 694 l 521 694 l 521 260 l 434 260 l 434 87 l 347 87 l 347 0 l 174 0 z "},"w":{"ha":781,"x_min":0,"x_max":694,"o":"m 87 0 l 87 87 l 0 87 l 0 434 l 87 434 l 87 521 l 0 521 l 0 694 l 174 694 l 174 174 l 260 174 l 260 608 l 347 608 l 347 694 l 434 694 l 434 174 l 521 174 l 521 608 l 608 608 l 608 694 l 694 694 l 694 87 l 608 87 l 608 0 l 434 0 l 434 87 l 347 87 l 347 0 l 87 0 z "},"x":{"ha":608,"x_min":0,"x_max":521,"o":"m 434 -87 l 434 0 l 347 0 l 347 260 l 260 260 l 260 174 l 174 174 l 174 0 l 0 0 l 0 260 l 174 260 l 174 347 l 87 347 l 87 434 l 0 434 l 0 694 l 87 694 l 87 608 l 174 608 l 174 434 l 260 434 l 260 521 l 347 521 l 347 694 l 521 694 l 521 434 l 434 434 l 434 347 l 521 347 l 521 -87 l 434 -87 z "},"y":{"ha":608,"x_min":0,"x_max":521,"o":"m 260 -87 l 260 0 l 174 0 l 174 260 l 87 260 l 87 347 l 0 347 l 0 434 l 87 434 l 87 521 l 0 521 l 0 694 l 174 694 l 174 434 l 347 434 l 347 608 l 434 608 l 434 694 l 521 694 l 521 347 l 434 347 l 434 260 l 347 260 l 347 -87 l 260 -87 z "},"z":{"ha":608,"x_min":0,"x_max":521,"o":"m 0 0 l 0 260 l 87 260 l 87 347 l 174 347 l 174 434 l 260 434 l 260 521 l 87 521 l 87 608 l 0 608 l 0 694 l 521 694 l 521 434 l 434 434 l 434 347 l 347 347 l 347 260 l 260 260 l 260 174 l 521 174 l 521 87 l 434 87 l 434 0 l 0 0 z "},"{":{"ha":521,"x_min":0,"x_max":434,"o":"m 174 -174 l 174 -87 l 87 -87 l 87 260 l 0 260 l 0 434 l 174 434 l 174 521 l 87 521 l 87 781 l 174 781 l 174 868 l 434 868 l 434 694 l 260 694 l 260 0 l 434 0 l 434 -174 l 174 -174 z "},"|":{"ha":260,"x_min":0,"x_max":174,"o":"m 0 -174 l 0 434 l 87 434 l 87 521 l 0 521 l 0 868 l 174 868 l 174 -174 l 0 -174 z "},"}":{"ha":521,"x_min":0,"x_max":434,"o":"m 0 -174 l 0 0 l 174 0 l 174 434 l 260 434 l 260 521 l 174 521 l 174 694 l 0 694 l 0 868 l 260 868 l 260 781 l 347 781 l 347 434 l 434 434 l 434 260 l 347 260 l 347 -87 l 260 -87 l 260 -174 l 0 -174 z "},"~":{"ha":521,"x_min":0,"x_max":434,"o":"m 260 174 l 260 260 l 174 260 l 174 347 l 87 347 l 87 260 l 0 260 l 0 434 l 87 434 l 87 521 l 174 521 l 174 434 l 260 434 l 260 347 l 347 347 l 347 434 l 434 434 l 434 260 l 347 260 l 347 174 l 260 174 z "},"‘":{"ha":260,"x_min":0,"x_max":174,"o":"m 0 434 l 0 608 l 87 608 l 87 521 l 174 521 l 174 434 l 0 434 m 87 608 l 87 694 l 174 694 l 174 608 l 87 608 z "},"’":{"ha":260,"x_min":0,"x_max":174,"o":"m 0 434 l 0 521 l 87 521 l 87 434 l 0 434 m 87 521 l 87 608 l 0 608 l 0 694 l 174 694 l 174 521 l 87 521 z "},"“":{"ha":521,"x_min":0,"x_max":434,"o":"m 0 434 l 0 608 l 87 608 l 87 521 l 174 521 l 174 434 l 0 434 m 260 434 l 260 608 l 347 608 l 347 521 l 434 521 l 434 434 l 260 434 m 87 608 l 87 694 l 174 694 l 174 608 l 87 608 m 347 608 l 347 694 l 434 694 l 434 608 l 347 608 z "},"”":{"ha":521,"x_min":0,"x_max":434,"o":"m 0 434 l 0 521 l 87 521 l 87 434 l 0 434 m 260 434 l 260 521 l 347 521 l 347 434 l 260 434 m 87 521 l 87 608 l 0 608 l 0 694 l 174 694 l 174 521 l 87 521 m 347 521 l 347 608 l 260 608 l 260 694 l 434 694 l 434 521 l 347 521 z "}}}
